# xmcd
#
# Track frame offsets: 
#        150
#        13755
#        28057
#        42085
#        58095
#        73462
#        87729
#        103005
#        117510
#        132100
#        145897
#        159802
#        173610
#        188222
#        200850
#        214295
#        228947
#        244437
#        259465
#        273655
#        289162
#        303425
#        318669
#
# Disc length: 4429 seconds
#
# Revision: 1
# Processed by: cddbd v1.5.2PL0 Copyright (c) Steve Scherf et al.
# Submitted via: ExactAudioCopy v0.99pb5
#
DISCID=6f114b17
DTITLE=Luis Russell - The Luis Russell Story 1929-1934 [CD1]
DYEAR=2005
DGENRE=Jazz
TTITLE0=Savoy Shout
TTITLE1=The Call Of The Freaks
TTITLE2=It's Tight Like That
TTITLE3=West End Blues
TTITLE4=I've Got That Thing
TTITLE5=Freakish Light Blues
TTITLE6=The Call Of The Freaks
TTITLE7=The Trumpet's Prayer
TTITLE8=African Jungle
TTITLE9=Slow As Molasses
TTITLE10=The New Call Of The Freaks
TTITLE11=Feelin' The Spirit
TTITLE12=Jersey Lightning
TTITLE13=Broadway Rhythm
TTITLE14=The Way He Loves Is Just Too Bad
TTITLE15=Doctor Blues
TTITLE16=Saratoga Shout
TTITLE17=Song Of The Swanee
TTITLE18=Give Me Your Telephone Number
TTITLE19=Higginbotham Blues
TTITLE20=Louisiana Swing
TTITLE21=Poor Li'l Me
TTITLE22=On Revival Day
EXTD=YEAR: 2000
EXTT0=
EXTT1=
EXTT2=
EXTT3=
EXTT4=
EXTT5=
EXTT6=
EXTT7=
EXTT8=
EXTT9=
EXTT10=
EXTT11=
EXTT12=
EXTT13=
EXTT14=
EXTT15=
EXTT16=
EXTT17=
EXTT18=
EXTT19=
EXTT20=
EXTT21=
EXTT22=
PLAYORDER=
